# xmcd
#
# Track frame offsets:
#	183
#	12258
#	25058
#	47045
#	57333
#	75245
#	93095
#	104883
#	116133
#	131133
#	142833
#	155958
#	168170
#	179958
#	192995
#	212420
#	225545
#	238595
#	249695
#	266645
#	279095
#	290495
#	303470
#	315545
#	325970
#
# Disc length: 4525 seconds
# Revision: 3
# Processed by: cddbd v1.5.2PL0 Copyright (c) Steve Scherf et al.
# Submitted via: dBpowerAMP V12.0
#
DISCID=6711ab19
DTITLE=Muddy Waters - The Muddy Waters Story
DYEAR=1989
DGENRE=Blues
TTITLE0=Mean Mistreater
TTITLE1=Oh Wee
TTITLE2=Howlin' Wolf
TTITLE3=She's So Pretty
TTITLE4=Garbage Man
TTITLE5=Blow Wind Blow
TTITLE6=Baby Please Don't Go
TTITLE7=Gone to Main Street
TTITLE8=Everything's Gonna Be Allright
TTITLE9=Sugar Sweet
TTITLE10=Good News
TTITLE11=Got My Mojo Working
TTITLE12=Trouble No More
TTITLE13=I Got a Rich Man's Woman
TTITLE14=Can't Get No Grindin'
TTITLE15=I Got to Find My Baby
TTITLE16=I'm a Natural Born Lover
TTITLE17=I Can't Call Her Sugar
TTITLE18=Off the Wall
TTITLE19=My Fault
TTITLE20=Lovin' Man
TTITLE21=She's Got It
TTITLE22=I Can't Be Satisified
TTITLE23=Evil
TTITLE24=I'm Your Hoochie Coochie Man
EXTD=
EXTT0=
EXTT1=
EXTT2=
EXTT3=
EXTT4=
EXTT5=
EXTT6=
EXTT7=
EXTT8=
EXTT9=
EXTT10=
EXTT11=
EXTT12=
EXTT13=
EXTT14=
EXTT15=
EXTT16=
EXTT17=
EXTT18=
EXTT19=
EXTT20=
EXTT21=
EXTT22=
EXTT23=
EXTT24=
PLAYORDER=
